<svg width="698" height="973" viewBox="0 0 698 973" fill="none" xmlns="http://www.w3.org/2000/svg">
<mask id="mask0_692_2830" style="mask-type:alpha" maskUnits="userSpaceOnUse" x="237" y="-1" width="208" height="208">
<rect x="237.852" y="-1" width="207.085" height="207.085" fill="#E9E9E9"/>
</mask>
<g mask="url(#mask0_692_2830)">
<rect x="205.506" y="205.808" width="329.075" height="45.2998" rx="1" transform="rotate(-45 205.506 205.808)" fill="white"/>
<rect x="186.064" y="130.554" width="250.11" height="45.2998" rx="1" transform="rotate(-45 186.064 130.554)" fill="white"/>
<rect x="140.777" y="85.2539" width="250.11" height="45.2998" rx="1" transform="rotate(-45 140.777 85.2539)" fill="white"/>
<rect x="283.145" y="227.625" width="250.11" height="45.2998" rx="1" transform="rotate(-45 283.145 227.625)" fill="white"/>
<rect x="321.98" y="279.396" width="250.11" height="45.2998" rx="1" transform="rotate(-45 321.98 279.396)" fill="white"/>
</g>
<rect x="490.24" y="76.6587" width="207.085" height="45.2998" rx="1" fill="white"/>
<rect x="490.24" y="160.784" width="207.085" height="45.2998" rx="1" fill="white"/>
<rect x="490.24" y="-1" width="207.085" height="45.2998" rx="1" fill="white"/>
<rect x="490.232" y="503.771" width="207.085" height="45.2998" rx="1" fill="white"/>
<rect x="697.318" y="710.856" width="207.085" height="45.2998" rx="1" transform="rotate(180 697.318 710.856)" fill="white"/>
<rect x="490.232" y="710.856" width="207.085" height="45.2998" rx="1" transform="rotate(-90 490.232 710.856)" fill="white"/>
<rect x="697.318" y="503.771" width="207.085" height="45.2998" rx="1" transform="rotate(90 697.318 503.771)" fill="white"/>
<rect width="207.085" height="45.2998" rx="1" transform="matrix(1 0 0 -1 490.24 458.473)" fill="white"/>
<rect width="116.485" height="45.2998" rx="1" transform="matrix(1 0 0 -1 580.846 367.873)" fill="white"/>
<rect width="207.085" height="45.2998" rx="1" transform="matrix(0 1 1 0 490.24 251.388)" fill="white"/>
<rect width="116.485" height="45.2998" rx="1" transform="matrix(0 1 1 0 580.846 251.388)" fill="white"/>
<mask id="mask1_692_2830" style="mask-type:alpha" maskUnits="userSpaceOnUse" x="237" y="503" width="208" height="208">
<rect x="237.852" y="503.771" width="207.085" height="207.085" fill="#E9E9E9"/>
</mask>
<g mask="url(#mask1_692_2830)">
<path d="M227.469 562.009C226.691 561.806 226.459 560.814 227.066 560.286L337.743 464.211C337.992 463.995 338.332 463.915 338.651 463.999L380.132 474.85C380.91 475.053 381.142 476.045 380.534 476.572L269.858 572.648C269.609 572.864 269.269 572.943 268.95 572.86L227.469 562.009Z" fill="white"/>
<path d="M296.35 580.021C295.572 579.817 295.34 578.825 295.947 578.298L406.623 482.223C406.873 482.007 407.213 481.927 407.532 482.011L449.013 492.861C449.791 493.065 450.023 494.057 449.415 494.584L338.739 590.659C338.49 590.876 338.15 590.955 337.831 590.872L296.35 580.021Z" fill="white"/>
<path d="M172.654 694.831C171.876 694.628 171.645 693.636 172.252 693.109L282.928 597.034C283.177 596.817 283.517 596.738 283.837 596.821L325.318 607.672C326.095 607.876 326.327 608.867 325.72 609.395L215.044 705.47C214.795 705.686 214.455 705.766 214.135 705.682L172.654 694.831Z" fill="white"/>
<path d="M365.207 598.036C364.429 597.832 364.197 596.84 364.805 596.313L475.481 500.238C475.73 500.022 476.07 499.942 476.39 500.026L517.87 510.877C518.648 511.08 518.88 512.072 518.273 512.599L407.597 608.674C407.347 608.891 407.007 608.97 406.688 608.887L365.207 598.036Z" fill="white"/>
<path d="M241.535 712.846C240.757 712.643 240.526 711.651 241.133 711.124L351.809 615.049C352.058 614.832 352.398 614.753 352.718 614.836L394.198 625.687C394.976 625.891 395.208 626.883 394.601 627.41L283.925 723.485C283.675 723.701 283.335 723.781 283.016 723.697L241.535 712.846Z" fill="white"/>
<path d="M310.395 730.861C309.617 730.657 309.385 729.665 309.992 729.138L420.668 633.063C420.918 632.846 421.258 632.767 421.577 632.851L463.058 643.701C463.836 643.905 464.067 644.897 463.46 645.424L352.784 741.499C352.535 741.715 352.195 741.795 351.875 741.711L310.395 730.861Z" fill="white"/>
</g>
<rect x="317.711" y="458.29" width="206.212" height="46.8664" rx="1" transform="rotate(-90 317.711 458.29)" fill="white"/>
<rect x="402.074" y="458.29" width="206.212" height="42.1797" rx="1" transform="rotate(-90 402.074 458.29)" fill="white"/>
<rect x="238.039" y="458.291" width="206.212" height="44.523" rx="1" transform="rotate(-90 238.039 458.291)" fill="white"/>
<rect y="424.67" width="208.555" height="44.523" rx="1" fill="white"/>
<rect y="347.34" width="208.555" height="42.1797" rx="3" fill="white"/>
<rect y="260.637" width="51.553" height="51.553" rx="1" fill="white"/>
<rect x="157.002" y="260.637" width="51.553" height="51.553" rx="1" fill="white"/>
<circle cx="105.448" cy="286.413" r="25.7765" fill="white"/>
<path fill-rule="evenodd" clip-rule="evenodd" d="M104.046 720.359C161.231 720.359 207.589 674.001 207.589 616.816C207.589 559.631 161.231 513.274 104.046 513.274C46.8614 513.274 0.503906 559.631 0.503906 616.816C0.503906 674.001 46.8614 720.359 104.046 720.359ZM104.036 681.531C139.777 681.531 168.75 652.557 168.75 616.817C168.75 581.076 139.777 552.103 104.036 552.103C68.2956 552.103 39.3222 581.076 39.3222 616.817C39.3222 652.557 68.2956 681.531 104.036 681.531Z" fill="white"/>
<rect x="78.1582" y="765.915" width="51.7712" height="51.7712" rx="1" fill="white"/>
<rect x="155.82" y="765.915" width="51.7712" height="51.7712" rx="1" fill="white"/>
<rect x="0.5" y="843.572" width="51.7712" height="51.7712" rx="1" fill="white"/>
<rect x="0.5" y="921.229" width="51.7712" height="51.7712" rx="1" fill="white"/>
<rect x="78.1582" y="921.229" width="51.7712" height="51.7712" rx="1" fill="white"/>
<rect x="155.82" y="921.229" width="51.7712" height="51.7712" rx="1" fill="white"/>
<circle cx="26.6105" cy="792.497" r="26.1105" fill="white"/>
<circle cx="103.575" cy="869.457" r="26.1105" fill="white"/>
<circle cx="183.269" cy="869.457" r="26.1105" fill="white"/>
</svg>
